<svg id="Layer_1" data-name="Layer 1" xmlns="http://www.w3.org/2000/svg" xmlns:xlink="http://www.w3.org/1999/xlink" viewBox="0 0 750 600"><defs><style>.cls-1{fill:none;}.cls-2{fill:#1e1e1e;}.cls-3{fill:#dbedff;}.cls-4{fill:#283245;}.cls-5{fill:#575d6c;}.cls-6{fill:#00a8fa;}.cls-7{fill:#ffbf63;}.cls-8{fill:#fff;}.cls-9{fill:#008280;}.cls-10{fill:#54b2e0;}.cls-11{fill:#afeafd;}.cls-12{fill:#00312d;}.cls-13{clip-path:url(#clip-path);}.cls-14{fill:#ff9d8a;}.cls-15{fill:#ed7462;}.cls-16{fill:#384e4f;}.cls-17{fill:#00537e;}.cls-18{fill:#ff9024;}.cls-19{fill:#f2cec2;}.cls-20{fill:#005b5c;}</style><clipPath id="clip-path"><rect class="cls-1" x="226.42" y="93.62" width="326.26" height="279.94"/></clipPath></defs><path class="cls-2" d="M652.13,176.62V455.7a19.66,19.66,0,0,1-19.88,19.42H147.05a19.66,19.66,0,0,1-19.88-19.42V176.62a19.65,19.65,0,0,1,19.88-19.42h485.2A19.65,19.65,0,0,1,652.13,176.62Z"/><path class="cls-3" d="M628.81,191.07V423.84c0,6.85-6.07,12.4-13.55,12.4H164.05A14.12,14.12,0,0,1,154,432.13a11.76,11.76,0,0,1-3.47-8.29V191.07c0-6.85,6.07-12.4,13.56-12.4H615.26a14.52,14.52,0,0,1,6.86,1.7A12.24,12.24,0,0,1,628.81,191.07Z"/><path class="cls-4" d="M701.17,464.06v1.77a39.39,39.39,0,0,1-7.8,23.56A41.45,41.45,0,0,1,660,506.07H119.33a41.45,41.45,0,0,1-33.4-16.68,39.39,39.39,0,0,1-7.8-23.56v-1.77Z"/><path class="cls-5" d="M394.25,485.06a6,6,0,1,1-6-5.81A5.89,5.89,0,0,1,394.25,485.06Z"/><path class="cls-5" d="M373.21,485.06a6,6,0,1,1-5.95-5.81A5.88,5.88,0,0,1,373.21,485.06Z"/><path class="cls-5" d="M415.29,485.06a6,6,0,1,1-6-5.81A5.89,5.89,0,0,1,415.29,485.06Z"/><path class="cls-6" d="M624.14,485.06a6,6,0,1,1-5.95-5.81A5.88,5.88,0,0,1,624.14,485.06Z"/><path class="cls-7" d="M645.18,485.06a6,6,0,1,1-6-5.81A5.89,5.89,0,0,1,645.18,485.06Z"/><path class="cls-5" d="M319.82,464.06v.41c0,3.18,2.19,5.76,4.88,5.76H451.89c2.69,0,4.88-2.58,4.88-5.76v-.41Z"/><path class="cls-8" d="M628.81,191.91v14.66H150.49V191.91a13,13,0,0,1,2.44-7.58,13.63,13.63,0,0,1,11.12-5.66H615.26a13.58,13.58,0,0,1,11.1,5.66A12.9,12.9,0,0,1,628.81,191.91Z"/><path class="cls-9" d="M590.31,193.33a3.59,3.59,0,1,1-3.59-3.5A3.55,3.55,0,0,1,590.31,193.33Z"/><path class="cls-10" d="M601.93,193.33a3.59,3.59,0,1,1-3.58-3.5A3.54,3.54,0,0,1,601.93,193.33Z"/><path class="cls-7" d="M613,193.33a3.59,3.59,0,1,1-3.59-3.5A3.55,3.55,0,0,1,613,193.33Z"/><path class="cls-11" d="M565.05,197H200.71a3.6,3.6,0,0,1-3.63-3.55v-.32a3.59,3.59,0,0,1,3.63-3.54H565.05a3.59,3.59,0,0,1,3.62,3.54v.32A3.6,3.6,0,0,1,565.05,197Z"/><path class="cls-2" d="M173.16,193.33v3.43a.65.65,0,0,1-1,.55l-3-1.72-3-1.71a.62.62,0,0,1,0-1.09l3-1.72,3-1.71a.64.64,0,0,1,1,.54Z"/><path class="cls-2" d="M178.5,193.33v3.43a.65.65,0,0,0,1,.55l3-1.72,3-1.71a.62.62,0,0,0,0-1.09l-3-1.72-3-1.71a.64.64,0,0,0-1,.54Z"/><path class="cls-8" d="M564.34,408.67H233.2a8,8,0,0,1-8.14-8V226.15a8,8,0,0,1,8.14-8H564.34a8.05,8.05,0,0,1,8.14,8V400.71A8.05,8.05,0,0,1,564.34,408.67Z"/><rect class="cls-8" x="571.54" y="255.25" width="23.01" height="69.85" rx="2.32"/><rect class="cls-2" x="575.41" y="283.76" width="12.64" height="9.52" rx="1.66"/><polygon class="cls-2" points="591.71 283.76 591.71 293.29 587.77 290.05 587.77 287 591.71 283.76"/><ellipse class="cls-7" cx="583.56" cy="310.18" rx="8.12" ry="7.93"/><path class="cls-8" d="M579.73,314.76a.82.82,0,0,0,.6-.25L588,307a.82.82,0,0,0,0-1.17.86.86,0,0,0-1.21,0l-7.65,7.48a.8.8,0,0,0,0,1.17A.82.82,0,0,0,579.73,314.76Z"/><path class="cls-8" d="M587.39,314.76a.85.85,0,0,0,.6-.25.82.82,0,0,0,0-1.17l-7.66-7.48a.85.85,0,0,0-1.2,0,.8.8,0,0,0,0,1.17l7.65,7.48A.85.85,0,0,0,587.39,314.76Z"/><rect class="cls-2" x="581.32" y="260.05" width="4.47" height="11.37" rx="1.82" transform="translate(1167.11 531.48) rotate(180)"/><rect class="cls-12" x="583.1" y="268.79" width="0.91" height="5.33" rx="0.37" transform="translate(1167.11 542.91) rotate(180)"/><rect class="cls-12" x="579.07" y="272.66" width="8.97" height="1.88" rx="0.78" transform="translate(1167.11 547.19) rotate(180)"/><path class="cls-11" d="M320.9,358.45H240.48a3.78,3.78,0,0,1-3.82-3.73V313.9a3.78,3.78,0,0,1,3.82-3.73H320.9a3.78,3.78,0,0,1,3.82,3.73v40.82A3.78,3.78,0,0,1,320.9,358.45Z"/><path class="cls-11" d="M547.09,282.64H466.67a3.78,3.78,0,0,1-3.82-3.73V238.09a3.78,3.78,0,0,1,3.82-3.73h80.42a3.78,3.78,0,0,1,3.82,3.73v40.82A3.78,3.78,0,0,1,547.09,282.64Z"/><path class="cls-11" d="M548.89,315.56H464.74a2,2,0,0,1-2-2v-.18a2,2,0,0,1,2-2h84.15a2,2,0,0,1,2,2v.18A2,2,0,0,1,548.89,315.56Z"/><path class="cls-11" d="M548.89,298.08H464.74a2,2,0,0,1-2-2v-.18a2,2,0,0,1,2-2h84.15a2,2,0,0,1,2,2v.18A2,2,0,0,1,548.89,298.08Z"/><path class="cls-11" d="M548.89,333.05H464.74a2,2,0,0,1-2-2v-.18a2,2,0,0,1,2-2h84.15a2,2,0,0,1,2,2v.18A2,2,0,0,1,548.89,333.05Z"/><path class="cls-11" d="M322.7,274.68H238.55a2,2,0,0,1-2-2v-.18a2,2,0,0,1,2-2H322.7a2,2,0,0,1,2,2v.18A2,2,0,0,1,322.7,274.68Z"/><path class="cls-11" d="M322.7,257.2H238.55a2,2,0,0,1-2-2V255a2,2,0,0,1,2-2H322.7a2,2,0,0,1,2,2v.18A2,2,0,0,1,322.7,257.2Z"/><path class="cls-11" d="M322.7,292.17H238.55a2,2,0,0,1-2-2V290a2,2,0,0,1,2-2H322.7a2,2,0,0,1,2,2v.18A2,2,0,0,1,322.7,292.17Z"/><path class="cls-4" d="M225.06,379.09H572.48v27.82a1.78,1.78,0,0,1-1.81,1.75H226.86a1.78,1.78,0,0,1-1.8-1.75Z"/><path class="cls-8" d="M547.57,390.05v-2.51h3.21v-2.23h-4.35a1.13,1.13,0,0,0-1.15,1.12v3.62Z"/><path class="cls-8" d="M547.57,394.51h-2.29v3.82a1.13,1.13,0,0,0,1.15,1.11h4.35v-2.23h-3.21Z"/><path class="cls-8" d="M557.47,390.05h2.28v-3.62a1.13,1.13,0,0,0-1.14-1.12h-4.19v2.23h3.05Z"/><path class="cls-8" d="M557.47,394.51v2.7h-3.05v2.23h4.19a1.13,1.13,0,0,0,1.14-1.11v-3.82Z"/><rect class="cls-11" x="225.06" y="373.53" width="347.42" height="5.56"/><path class="cls-7" d="M243.85,234.19a4.78,4.78,0,1,1-4.78-4.66A4.73,4.73,0,0,1,243.85,234.19Z"/><g class="cls-13"><path class="cls-14" d="M493.68,190.86s4.13,9.15,11.79,9c6.18-.09,10.22-6.93,11.55-9.55.32-.63.48-1,.48-1a8.73,8.73,0,0,0,1.09-.24c1.51-.4,4.13-1.38,4.7-3.47.82-3-5.12-3.37-5.12-3.37s2.16-3.15,1-4.76-5-1-5-1,3.38-3.59,1.43-5.49c-2.93-2.86-6.15,1.91-6.43,2.2.19-.37,4-7,.91-7.23-2.73-.2-6.13,3.6-8.12,7-.32.54-.49.86-.49.86l-.53-.2c-1.59-.54-6.39-1.87-8.47,1C489.91,178,493.68,190.86,493.68,190.86Z"/><path class="cls-15" d="M502.75,194.83a.6.6,0,0,0,.56-.19.55.55,0,0,0-.05-.81,5.15,5.15,0,0,1-2-4c0-3.82,4.25-7.53,4.29-7.57a.56.56,0,0,0,.05-.81.6.6,0,0,0-.83-.05c-.19.16-4.69,4.1-4.69,8.43a6.2,6.2,0,0,0,2.37,4.82A.64.64,0,0,0,502.75,194.83Z"/><path class="cls-15" d="M504.11,179.79a1.82,1.82,0,0,0,1.21,1.32,1.84,1.84,0,0,0,.42.09,4.51,4.51,0,0,0,1.09,0,3.92,3.92,0,0,0-.57.77,1.78,1.78,0,0,0-.27.77,1.47,1.47,0,0,0,.62,1.34c1.24,1,3.48.91,5.26.67a6,6,0,0,0-2,3.32,1.8,1.8,0,0,0,.67,1.65,3.61,3.61,0,0,0,1.48.57,19.81,19.81,0,0,0,5,.09c.32-.63.48-1,.48-1a9.71,9.71,0,0,0,1.09-.23.61.61,0,0,0-.33,0c-2.18.29-6,.48-6.95-.26a.68.68,0,0,1-.23-.65c.11-1.16,1.79-3.09,3.46-4a.58.58,0,0,0,.27-.72.59.59,0,0,0-.71-.34c-1.4.38-5.36,1.12-6.75,0-.2-.16-.19-.28-.18-.34a1.92,1.92,0,0,1,.66-1,14.82,14.82,0,0,1,3.06-2.1.51.51,0,0,0,.24-.24.53.53,0,0,0,0-.53.58.58,0,0,0-.8-.24c-.18.09-.57.3-1,.58a13.24,13.24,0,0,1-2.57.74,2.33,2.33,0,0,1-1,0,.69.69,0,0,1-.45-.53,3.63,3.63,0,0,1,.17-1.84.56.56,0,0,0-.21-.62h0a.58.58,0,0,0-.9.29A4.81,4.81,0,0,0,504.11,179.79Z"/><path class="cls-16" d="M505.54,168.28a16.18,16.18,0,0,0-2.17,2.6c-.61,1-1,1.47-1.45,2.11h0l-1.05-48.32a.59.59,0,0,1,1.17-.06l3.5,43.67Z"/><path class="cls-16" d="M502.67,196c4.45,1.44,5.05-.61,5.05-.61l-.9-11.18-.21-.15a1.47,1.47,0,0,1-.62-1.34,1.78,1.78,0,0,1,.27-.77,3.69,3.69,0,0,1,.34-.5l0-.24a3.92,3.92,0,0,1-.84,0,1.84,1.84,0,0,1-.42-.09,1.74,1.74,0,0,1-.94-.72,2.92,2.92,0,0,1-1.52,1.18,3.19,3.19,0,0,1-.55.16Z"/><path class="cls-15" d="M495,180.12a19.2,19.2,0,0,0,4.4,1.51,6.69,6.69,0,0,0,3.51-.06,2.88,2.88,0,0,0,1.77-1.66c1.18-2.84-1.19-5.55-2.71-6.92-.32.54-.49.86-.49.86l-.53-.2c1.29,1.12,3.6,3.52,2.64,5.82a1.75,1.75,0,0,1-1.09,1c-2,.72-5.7-.77-7-1.4a.6.6,0,0,0-.79.25A.57.57,0,0,0,495,180.12Z"/><path class="cls-6" d="M433.18,183.91v0s0,0,0,0l0,.06.06.13.16.31.34.68c.12.24.24.48.37.72l.38.73c.52,1,1.07,2,1.64,3,1.15,2,2.34,3.93,3.63,5.84s2.6,3.8,4,5.61c.71.9,1.41,1.81,2.15,2.68s1.46,1.75,2.2,2.61c1.52,1.7,3.07,3.35,4.7,4.91.39.41.81.78,1.22,1.16s.81.78,1.23,1.15c.85.73,1.68,1.49,2.54,2.18,1.7,1.45,3.5,2.75,5.29,4s3.68,2.44,5.59,3.51l1.43.81,1.47.74.73.38.18.1-.09-.05-.13-.06a3.24,3.24,0,0,0-.52-.19,7.3,7.3,0,0,0-2.39-.43h-.54l-.26,0-.23,0a3.21,3.21,0,0,0-.43.07l-.33.07-.16.05-.12,0-.21.09-.14.05-.06,0h0c-.16.09.16,0,.6-.38a16.23,16.23,0,0,0,1.65-1.45c.62-.61,1.28-1.32,1.94-2.09,1.33-1.53,2.68-3.31,4-5.17s2.65-3.85,3.93-5.88,2.56-4.12,3.8-6.24,2.47-4.27,3.67-6.44c.61-1.08,1.2-2.17,1.79-3.26l1.71-3.15,22,8.86-.37,1.06-.36,1-.73,1.95c-.5,1.29-1,2.56-1.53,3.83-1.06,2.54-2.16,5.06-3.34,7.57s-2.42,5-3.75,7.5c-.68,1.25-1.36,2.49-2.08,3.74s-1.47,2.48-2.25,3.73a87.3,87.3,0,0,1-5.26,7.51c-1,1.26-2.08,2.53-3.28,3.81a41.73,41.73,0,0,1-4.15,3.9,30.46,30.46,0,0,1-6.05,3.89l-.48.22-.52.23-1.06.42c-.37.14-.77.27-1.16.39l-.59.18-.64.17c-.43.11-.87.2-1.31.29s-.94.16-1.42.22l-.72.08-.76,0c-.51,0-1,.05-1.53,0a20.91,20.91,0,0,1-6.3-1.14c-.49-.18-1-.37-1.44-.57l-.35-.16-.33-.14-.26-.13-1-.53-2.08-1.05c-.68-.36-1.35-.75-2-1.12-2.72-1.49-5.3-3.18-7.84-4.91s-4.95-3.63-7.25-5.62-4.51-4.05-6.63-6.18l-1.56-1.63c-.51-.54-1-1.11-1.51-1.66s-1-1.11-1.47-1.68l-1.45-1.71A109.24,109.24,0,0,1,417,208.7c-1.46-2.55-2.85-5.13-4.1-7.8-.63-1.34-1.24-2.68-1.81-4.08-.15-.34-.29-.7-.43-1l-.42-1.08q-.21-.54-.42-1.11l-.47-1.35Z"/><path class="cls-17" d="M499.23,200a1.6,1.6,0,0,1-1.35,1.85,1.64,1.64,0,0,1-1.89-1.31,1.61,1.61,0,0,1,1.35-1.85A1.64,1.64,0,0,1,499.23,200Z"/><path class="cls-17" d="M473.21,235a.71.71,0,0,1-.79-.34,50.26,50.26,0,0,1-4.15-11.23.68.68,0,0,1,.53-.82.71.71,0,0,1,.84.52,50.23,50.23,0,0,0,4,10.88.67.67,0,0,1-.28.93Z"/><path class="cls-17" d="M467.59,231.33a.69.69,0,0,1-.32,0,.68.68,0,0,1-.54-.81,53.44,53.44,0,0,1,1.81-6.59.7.7,0,0,1,.92-.35.68.68,0,0,1,.36.91,55.45,55.45,0,0,0-1.72,6.32A.71.71,0,0,1,467.59,231.33Z"/><path class="cls-17" d="M507.53,211.66a.73.73,0,0,1-.54-.08c-7.21-4.3-22.45-10.12-22.6-10.17a.68.68,0,0,1-.4-.89.71.71,0,0,1,.91-.39c.15.06,15.51,5.92,22.82,10.28a.68.68,0,0,1,.23.94A.68.68,0,0,1,507.53,211.66Z"/><path class="cls-17" d="M500.73,208.14a.7.7,0,0,1-.47,0,.68.68,0,0,1-.34-.91l4.74-9.79a.72.72,0,0,1,.94-.32.67.67,0,0,1,.33.91l-4.74,9.78A.64.64,0,0,1,500.73,208.14Z"/><path class="cls-2" d="M358.43,342c.15.6.32,1.18.5,1.75a.19.19,0,0,0,0,.07q.36,1.16.81,2.22c2.64,6.27,22.93,7.15,42.91,4.93,15.49-1.72,30.79-5.31,37.51-9.71,6.3-4.12-7.22-42.07-7.22-42.07l-75.77,15.68S355.52,330.68,358.43,342Z"/><path class="cls-2" d="M411.06,408.44h37.6c-1.37-20.31-3.47-43.12-6-67.07-.07-.64-.13-1.28-.21-1.92-.22-2.13-.46-4.27-.7-6.41-.06-.58-.12-1.15-.19-1.72l-7.29,3.29-1.79.81-28.63,12.95.3,2.46Z"/><path class="cls-16" d="M415.54,408.44h1.88l-7.69-56.51a.93.93,0,0,0-1.85.24Z"/><path class="cls-16" d="M424.36,319.11c.09.47,1.94,9.75,8.08,16.31a21.45,21.45,0,0,0,4.28,3.55,18.35,18.35,0,0,0,4,1.87,17.89,17.89,0,0,0,1.94.53c-.07-.64-.13-1.28-.21-1.92-.31-.08-.62-.16-.93-.26a16.45,16.45,0,0,1-3.76-1.75,19.2,19.2,0,0,1-3.49-2.83c-6.13-6.24-8-15.72-8.05-15.83a.93.93,0,0,0-1.08-.73A.91.91,0,0,0,424.36,319.11Z"/><path class="cls-16" d="M409.09,347a.75.75,0,0,1-.73.77h0a.75.75,0,0,1-.81-.69c-.14-2.74-.31-5.54-.5-8.34,0-.49-.06-1-.1-1.48-.63-9.15-1.42-18.13-2-24.47-.05-.51-.1-1-.15-1.49-.13-1.39-.25-2.62-.35-3.67l1.53-.24c.1,1,.23,2.29.36,3.69.05.48.09,1,.14,1.49.59,6.29,1.38,15.19,2,24.28,0,.5.06,1,.1,1.51C408.76,341.3,408.94,344.21,409.09,347Z"/><path class="cls-16" d="M411.28,337.38a19.53,19.53,0,0,1-2.71,1,13.68,13.68,0,0,1-1.53.38,12.06,12.06,0,0,1-1.47.19,5.55,5.55,0,0,1-2.6-.39,3.1,3.1,0,0,1-1.76-2.31c-.57-2.82-1.78-14.48-2.59-22.72-.05-.51-.1-1-.15-1.48-.13-1.32-.24-2.52-.34-3.54l1.54-.19c.1,1,.21,2.24.35,3.58,0,.47.09,1,.14,1.48.82,8.22,2,19.86,2.57,22.59a1.62,1.62,0,0,0,.94,1.28,5.53,5.53,0,0,0,3.27,0,14.93,14.93,0,0,0,1.53-.41,20.84,20.84,0,0,0,2.12-.81.8.8,0,0,1,1,.32A.72.72,0,0,1,411.28,337.38Z"/><path class="cls-2" d="M358.92,343.75v.09l.18,1.8c1.68,17.32,4.28,43.36,6.51,62.8h37.16L402.65,339a227.34,227.34,0,0,0-21.48-8.48l-1.81-.59c-1.14-.36-2.29-.71-3.44-1l-1.82-.5c-6.85-1.82-13.2-2.72-16.77-1.26,0,0,.55,5.89,1.43,14.91C358.81,342.58,358.87,343.16,358.92,343.75Z"/><path class="cls-16" d="M371,408.44c-2.14-23.71-4.77-59.61-4.8-60.07a.93.93,0,0,0-1.86.13c0,.46,2.66,36.2,4.79,59.94Z"/><path class="cls-16" d="M358.92,343.75v.09l.18,1.8a15.35,15.35,0,0,0,7.72-.69c4.76-1.7,8.49-5.51,11.19-9.3a45.44,45.44,0,0,0,3.15-5.16,41.31,41.31,0,0,0,2.21-4.86.9.9,0,0,0-.57-1.16.92.92,0,0,0-1.18.56,46.85,46.85,0,0,1-5.21,9.63c-2.53,3.54-5.95,7.06-10.23,8.58A13.58,13.58,0,0,1,358.92,343.75Z"/><path class="cls-8" d="M345.86,260.71c.13,1.93.3,3.87.5,5.8,1,9.68,4.83,42.1,8.25,51.18,12.62,6,26.76,8.14,40.24,7.57q3.86-.17,7.62-.62,3.33-.4,6.55-1c14-2.65,26.27-8.16,33.88-15.12-3.6-13.61-7.8-38.27-9.37-48.85-.29-2-.56-3.89-.79-5.76s-.44-3.61-.62-5.35c-.2-2-.38-3.92-.52-5.79s-.28-3.95-.38-5.83-.17-4-.21-5.82c-.55-25.47,4.21-38,2.95-44.14-1.89-9.19-10.59-9.06-18.51-11.94q-.7-.25-1.38-.54l-.92-.4a17.68,17.68,0,0,1-7.25-5.9l-23.26,0a32.26,32.26,0,0,1-5.26,3.2l-1,.47c-.83.39-1.75.78-2.76,1.15a44.92,44.92,0,0,1-8.75,2.27c-10.42,1.64-16.4,12.47-17.5,30-.56,8.87-1.15,17.23-1.54,25.29,0,.54,0,1.07-.07,1.61A247.32,247.32,0,0,0,345.86,260.71Z"/><polygon class="cls-7" points="410.15 273.61 406.17 283.05 406.17 283.05 404.38 287.29 399.33 299.28 396.87 294.66 396 293.02 394.02 289.32 393.15 287.68 391.18 283.98 390.31 282.34 388.34 278.64 388.34 278.64 387.46 277 385.61 273.52 385.65 273.14 385.93 270.38 386.57 264.11 386.86 261.34 387.5 255.08 387.78 252.31 388.42 246.04 388.7 243.28 389.34 237.01 389.63 234.24 390.27 227.97 390.55 225.21 391.19 218.94 391.47 216.17 392.11 209.91 392.4 207.14 393.04 200.87 393.32 198.11 393.63 195.09 393.98 191.63 398.88 191.43 399.03 192.51 399.33 194.7 399.42 195.38 400.01 199.67 400.31 201.87 401 206.84 401.3 209.03 401.98 214 402.28 216.2 402.96 221.17 403.26 223.36 403.94 228.33 404.25 230.53 404.93 235.5 405.23 237.69 405.91 242.66 406.21 244.86 406.89 249.83 407.19 252.02 407.87 256.99 408.17 259.19 408.85 264.16 409.16 266.35 409.84 271.32 410.14 273.52 410.15 273.61"/><polygon class="cls-18" points="399.42 195.38 396.52 200.42 393.63 195.09 393.98 191.63 398.88 191.43 399.03 192.51 399.33 194.7 399.42 195.38"/><path class="cls-6" d="M345.86,260.71c.13,1.93.3,3.87.5,5.8,1,9.68,4.83,42.1,8.25,51.18,12.62,6,26.76,8.14,40.24,7.57l7.08-10.93,7.09,9.3c14-2.65,26.27-8.16,33.88-15.12-1.3-4.93-2.69-11.31-4-17.95-.31-1.59-.62-3.2-.92-4.81-1.92-10.16-3.58-20.26-4.45-26.09-.29-2-.56-3.89-.79-5.76s-.44-3.61-.62-5.35c-.2-2-.38-3.92-.52-5.79s-.28-3.95-.38-5.83-.17-4-.21-5.82c-.55-25.47,4.21-38,2.95-44.14-1.89-9.19-10.59-9.06-18.51-11.94l-.4.19-17.28,74.71-23.7-76.78-.44-.1a44.92,44.92,0,0,1-8.75,2.27c-10.42,1.64-16.4,12.47-17.5,30-.56,8.87-1.15,17.23-1.54,25.29,0,.54,0,1.07-.07,1.61A247.32,247.32,0,0,0,345.86,260.71Z"/><path class="cls-17" d="M418.34,284.54a151.85,151.85,0,0,0,20.56,6c-.31-1.59-.62-3.2-.92-4.81-8.6-2.06-18.57-5.14-18.57-5.14Z"/><path class="cls-17" d="M383.28,283.77s-16.93,9.93-24.68,12.77l2.36,4s14.72-6.53,24.3-13.22Z"/><path class="cls-17" d="M415.05,175.22a8.39,8.39,0,0,1,10.47,2.85l-3.88,24.47-8.76,5.09,5.94,3.47-6.65,28.45-14.4,10.38Z"/><path class="cls-17" d="M377.47,173s-6.39-4-10.81,2l5.46,27.64,8.79,5.05L375,211.18l6.76,28.43,16,10.32Z"/><path class="cls-17" d="M402.67,306.75a1.74,1.74,0,0,1-1.89,1.56,1.71,1.71,0,1,1,1.89-1.56Z"/><path class="cls-17" d="M401.93,294.05a1.76,1.76,0,1,1-1.6-1.85A1.74,1.74,0,0,1,401.93,294.05Z"/><path class="cls-17" d="M401.19,281.35a1.76,1.76,0,0,1-1.9,1.57,1.72,1.72,0,1,1,1.9-1.57Z"/><path class="cls-17" d="M400.44,268.65a1.76,1.76,0,1,1-1.6-1.85A1.74,1.74,0,0,1,400.44,268.65Z"/><path class="cls-17" d="M399.7,256a1.76,1.76,0,1,1-1.61-1.85A1.74,1.74,0,0,1,399.7,256Z"/><path class="cls-17" d="M430.36,232a.74.74,0,0,0,1.24-.53c0-5.6.21-11.61.63-17.94,0-.28,0-.51,0-.68a.75.75,0,0,0-1.5-.09c0,.16,0,.39,0,.68-.43,6.35-.64,12.38-.64,18a.72.72,0,0,0,.25.54Z"/><path class="cls-4" d="M380.2,141.89s-5.33-3.72-6.58-9.56c-1.11-5.14,3.32-5.14,3.32-5.14s-3.63-5.59-1.45-9.76a7.85,7.85,0,0,1,8.15-4.23s-1.46-8.31,12.08-7.63,21.6,1.17,23.79,6.89-3.33,7.39-3.33,7.39,5.47,3.24,2.8,6.62a5.82,5.82,0,0,1-6,2.38Z"/><path class="cls-15" d="M407.53,139.59s1.68-6.17,6.82-5,6.12,17.62-3.55,17.55Z"/><path class="cls-14" d="M383.22,170s-1.21,2.08,8.22,4.62a20.61,20.61,0,0,0,14-1.66,19.87,19.87,0,0,0,1.92-1.23c-1.54-7-.3-11.52.06-12.6a2.56,2.56,0,0,1,.09-.25L382.94,147Z"/><path class="cls-12" d="M386.42,156.36s5.91,15.84,19,16.59a19.87,19.87,0,0,0,1.92-1.23c-1.54-7-.3-11.52.06-12.6Z"/><path class="cls-14" d="M395.94,164.63c10.13,1.82,18.13-2.5,19-11,.22-2,.3-5,.31-8.07v-.1c0-.65,0-1.31,0-2,0-.48,0-1,0-1.43-.06-5.49-.27-10.46-.27-10.46-1.6-13.62-15.47-18.56-26.48-13.27s-6.58,21.83-6.46,29.93A16.29,16.29,0,0,0,395.94,164.63Z"/><path class="cls-8" d="M398,148.46s1.43,4.52,5.21,5.25c4.31.84,5.27-4.43,5.27-4.43Z"/><path class="cls-12" d="M395.22,135c-2.86.59-3.67-2.4-1.09-3.95a7.64,7.64,0,0,1,3.8-1.33c3.77,0,3.89,2.57,2,3.62A20.52,20.52,0,0,1,395.22,135Z"/><path class="cls-12" d="M411.48,133.55c2.91.25,3.35-2.81.59-4.05a7.71,7.71,0,0,0-3.94-.87c-3.74.42-3.54,3-1.53,3.83A20.18,20.18,0,0,0,411.48,133.55Z"/><path class="cls-15" d="M414.11,145.73c.4,0,.78-.08,1.15-.14v-.1c0-.65,0-1.31,0-2,0-.48,0-1,0-1.43a11.16,11.16,0,0,0-1.41,0c-2.54.19-4.54,1.15-4.46,2.15S411.57,145.92,414.11,145.73Z"/><path class="cls-8" d="M413.16,145a6.29,6.29,0,0,1-7.38-4.85,6.16,6.16,0,0,1,5-7.21,6.29,6.29,0,0,1,7.38,4.84A6.16,6.16,0,0,1,413.16,145Zm-2.24-11.18a5.25,5.25,0,0,0-4.23,6.16,5.36,5.36,0,0,0,6.3,4.13,5.25,5.25,0,0,0,4.23-6.15A5.38,5.38,0,0,0,410.92,133.79Z"/><path class="cls-12" d="M405.59,146.58a.45.45,0,0,0,.22-.08c2.28-1.53,2.72-2.34,2.78-2.49a.43.43,0,0,0,0-.42l-3.3-4.85,0,0c-.71-.82-.84-2.5-.93-4.46a.46.46,0,0,0-.48-.42.45.45,0,0,0-.43.46c.1,2.11.25,3.94,1.13,5l3.12,4.59a10.43,10.43,0,0,1-2.33,1.93.44.44,0,0,0-.12.62A.48.48,0,0,0,405.59,146.58Z"/><path class="cls-15" d="M387.58,143.88c.08,1,2.2,1.66,4.74,1.47s4.54-1.15,4.46-2.15-2.2-1.66-4.74-1.47S387.5,142.88,387.58,143.88Z"/><path class="cls-8" d="M398.18,145.37a6.29,6.29,0,0,1-7.38-4.85,6.16,6.16,0,0,1,5-7.21,6.3,6.3,0,0,1,7.39,4.85A6.16,6.16,0,0,1,398.18,145.37Zm-2.24-11.17a5.24,5.24,0,0,0-4.23,6.15,5.36,5.36,0,0,0,6.3,4.13,5.25,5.25,0,0,0,4.23-6.15A5.36,5.36,0,0,0,395.94,134.2Z"/><path class="cls-8" d="M406.18,139.4h0a.45.45,0,0,1-.53-.36s-.23-1.16-1.09-1.12a1.64,1.64,0,0,0-1.33,1.1.48.48,0,0,1-.58.29.45.45,0,0,1-.3-.57A2.55,2.55,0,0,1,404.5,137a2.1,2.1,0,0,1,2.05,1.86A.46.46,0,0,1,406.18,139.4Z"/><path class="cls-8" d="M391.36,138.6a.47.47,0,0,1-.49-.23c-2.5-4.37-7.14-2.22-7.33-2.13a.47.47,0,0,1-.62-.2.44.44,0,0,1,.21-.6c.05,0,5.62-2.64,8.54,2.5a.43.43,0,0,1-.18.61Z"/><path class="cls-4" d="M415,132.56h0a16.15,16.15,0,0,0-4.11-13.33c-7-7.85-21.23-7.41-26.92.57s-2.89,14.91-2.89,14.91,2.29.81,3.41,5.19l3-.12s1.14-3.66-.06-9.63,9.59-11.94,16.92-10.59a13.1,13.1,0,0,1,9.65,7.85A22,22,0,0,1,415,132.56Z"/><path class="cls-4" d="M391.34,123s5.1-2,7.57-1,6,2.19,8.72.29S413.4,126,413.4,126s-3.42-10-11.85-7.91S393.14,119.4,391.34,123Z"/><path class="cls-15" d="M404.44,155.59l.33-.1a.44.44,0,0,0,.24-.58.45.45,0,0,0-.59-.24,2.94,2.94,0,0,1-2.84-.44.47.47,0,0,0-.64,0,.44.44,0,0,0,.05.63A3.78,3.78,0,0,0,404.44,155.59Z"/><path class="cls-14" d="M383.94,137.15s-2.93-4.53-7.66-2.28-1.89,18.51,7.51,16.31Z"/><path class="cls-12" d="M381.86,145.43l.1,0a.44.44,0,0,0,.3-.55c-.06-.2-1.55-4.89-5.95-5.54a.45.45,0,0,0-.52.37.45.45,0,0,0,.38.5c3.84.57,5.21,4.88,5.22,4.93A.47.47,0,0,0,381.86,145.43Z"/><path class="cls-12" d="M377.78,144a.46.46,0,0,0,.31-.15S379,142.9,380,142a.44.44,0,0,0,0-.63.47.47,0,0,0-.64,0c-1,1-1.9,1.9-1.93,1.94a.42.42,0,0,0,0,.62A.44.44,0,0,0,377.78,144Z"/><path class="cls-12" d="M396.4,139.24c0,1,.49,1.78,1.06,1.77s1-.81,1-1.79-.49-1.77-1.07-1.77S396.39,138.26,396.4,139.24Z"/><path class="cls-12" d="M408.14,139.28c0,1,.48,1.77,1.06,1.76s1-.8,1-1.79-.49-1.77-1.06-1.77S408.13,138.29,408.14,139.28Z"/><path class="cls-8" d="M382.86,164.28s-3.51,1-5.39,8.76c2.44,7,9.31,12.93,18.94,14.65l0-13.82A25,25,0,0,1,382.86,164.28Z"/><path class="cls-8" d="M406.84,166.23s5.8,1.28,8.21,9c-6.21,7.4-9.52,10.19-18.64,12.47l0-13.82S401.85,173.78,406.84,166.23Z"/><polygon class="cls-7" points="389.87 185.69 396.43 195.17 402.68 185.66 396.39 177.74 389.87 185.69"/><path class="cls-19" d="M409.61,195.38a.74.74,0,0,0,.45-.15.72.72,0,0,0,.14-1L397,177.3a.76.76,0,0,0-.57-.29.8.8,0,0,0-.59.25l-13.06,14.65a.71.71,0,0,0,.08,1,.74.74,0,0,0,1-.07l12.46-14L409,195.09A.76.76,0,0,0,409.61,195.38Z"/><path class="cls-19" d="M396.4,178.48h0a.74.74,0,0,0,.74-.74l0-3.22a.74.74,0,0,0-.75-.73h0a.73.73,0,0,0-.74.74l0,3.22A.75.75,0,0,0,396.4,178.48Z"/><path class="cls-14" d="M358,314c1.64-.44,4.05,1.24,6.22,1.8a26.75,26.75,0,0,1,8.93,4.41c1.21,1,7.23,7.75,9.95,10.68a1.64,1.64,0,0,1-.06,2.35c-.9.78-2.77.77-6.38-2.48l-1.39-1.17a7.92,7.92,0,0,0-3.21-1.54s2,1.76,5.45,5c-3.75,6.37-9.85,12.44-18,10.85a50.65,50.65,0,0,1-3.2-5.88c-1.54-2.73-6.31-9.74-7.67-13.59C347.76,321.78,352.83,315.4,358,314Z"/><path class="cls-6" d="M354.68,181.11l-.74.58-.58.48-1.1.91c-.72.6-1.4,1.19-2.08,1.79-1.35,1.2-2.65,2.41-3.92,3.64-2.54,2.44-5,5-7.32,7.55A150.62,150.62,0,0,0,326,212.57,134.33,134.33,0,0,0,315.65,231q-2.22,4.84-4,9.89c-.6,1.68-1.15,3.38-1.68,5.09-.25.86-.51,1.72-.75,2.58l-.18.65-.09.33-.17.67a21,21,0,0,0-.55,3.16,25,25,0,0,0-.12,2.65c0,.82.06,1.56.12,2.28a34.37,34.37,0,0,0,.58,3.84,50.16,50.16,0,0,0,1.73,6.2c.65,1.88,1.34,3.62,2.06,5.3s1.47,3.28,2.24,4.85c1.54,3.14,3.15,6.12,4.81,9s3.36,5.74,5.1,8.52c3.48,5.57,7.1,11,10.82,16.24q2.82,4,5.69,7.86c1,1.29,1.92,2.59,2.9,3.88l1.49,1.93,1.53,2,20-13.79-1.2-1.87-1.22-1.94-2.45-3.89q-2.43-3.9-4.78-7.85c-3.15-5.24-6.19-10.52-9.05-15.79-1.43-2.64-2.8-5.29-4.11-7.91s-2.53-5.24-3.62-7.8a67.62,67.62,0,0,1-2.67-7.28,23.1,23.1,0,0,1-.66-2.87,6.26,6.26,0,0,1-.06-.8c0-.06,0-.1,0-.05a1.09,1.09,0,0,1,0,.31,7.55,7.55,0,0,1-.14.86l0,.14v0s0,0,0,0l0-.06.08-.24.16-.47c.2-.64.43-1.27.64-1.9.46-1.26.93-2.52,1.45-3.76,1-2.49,2.17-4.95,3.41-7.37a111.27,111.27,0,0,1,8.67-14.08c1.63-2.27,3.35-4.48,5.13-6.64s3.65-4.29,5.58-6.34,3.9-4.07,5.94-6c1-1,2-1.89,3.07-2.78.51-.45,1-.89,1.51-1.31l.73-.61.53-.42Z"/><path class="cls-17" d="M336.71,257.38a.75.75,0,0,0,.73-.57.73.73,0,0,0-.57-.88,80.29,80.29,0,0,0-11.65-1.62.74.74,0,0,0-.78.7.75.75,0,0,0,.72.76,80.35,80.35,0,0,1,11.38,1.59Z"/><path class="cls-17" d="M336.27,257.29a.76.76,0,0,0,.6-.29.73.73,0,0,0-.14-1c-2.52-1.87-6.06-4-6.21-4.06a.78.78,0,0,0-1,.25.73.73,0,0,0,.26,1s3.61,2.14,6.07,4A.74.74,0,0,0,336.27,257.29Z"/><path class="cls-17" d="M345.85,240.41a.74.74,0,0,0,.63-.34c.14-.2,13.49-20.42,22.12-27.7a.72.72,0,0,0,.08-1,.77.77,0,0,0-1.06-.08c-8.8,7.42-21.85,27.18-22.4,28a.72.72,0,0,0,.23,1A.75.75,0,0,0,345.85,240.41Z"/><path class="cls-17" d="M363.53,217h.11l6.43-1a.74.74,0,0,0,.63-.84.76.76,0,0,0-.86-.61l-6.42,1a.73.73,0,0,0,.11,1.46Z"/><path class="cls-17" d="M340.45,318.67a.83.83,0,0,0,.43-.13l19.85-13.36a.73.73,0,0,0,.19-1,.77.77,0,0,0-1.05-.19L340,317.33a.73.73,0,0,0-.19,1A.75.75,0,0,0,340.45,318.67Z"/><path class="cls-17" d="M352.42,324.17a.78.78,0,0,0,.41-.12.72.72,0,0,0,.21-1l-6.13-9a.76.76,0,0,0-1-.2.72.72,0,0,0-.21,1l6.13,9A.76.76,0,0,0,352.42,324.17Z"/><path class="cls-17" d="M355.72,316.65a1.77,1.77,0,0,1-2.37.74,1.69,1.69,0,0,1-.75-2.31,1.76,1.76,0,0,1,2.36-.73A1.69,1.69,0,0,1,355.72,316.65Z"/></g><path class="cls-4" d="M220.26,393.55c-22-1-41.62-7.87-54.34-5.51s-12.51-29.74.25-39.29c9.49-7.11-4.51-21.29-4.4-32.73-.84-1.65-3-13.16,5.89-21.69,9.7-9.27,19.64-9.64,29.65-4.84,6.57,2.3,13,8.53,14.91,24.28,3.38,27.13,14.59,23,31.54,45.38C253.67,372.24,242.22,394.58,220.26,393.55Z"/><path class="cls-14" d="M161.07,356.83l-3.14,4.28-3.08,4.28q-3.07,4.29-6.1,8.62c-4,5.77-8,11.6-11.88,17.6-1.93,3-3.84,6.05-5.7,9.24-.93,1.6-1.85,3.22-2.75,5-.45.86-.9,1.78-1.34,2.75a33.94,33.94,0,0,0-1.34,3.3l0,.12,0,.13-.08.27-.17.54-.16.63c0,.21-.11.44-.14.58-.07.32-.13.67-.2,1.05s-.12.79-.17,1.29a13.18,13.18,0,0,0-.06,1.9l0,.33v.17l0,.19c0,.13,0,.25,0,.39s0,.31.07.46a10.5,10.5,0,0,0,.78,2.57c.14.3.27.55.47.91.1.17.2.33.31.49l.18.27.2.27c.14.19.27.36.43.54s.35.38.54.57l.28.27.32.27c.22.19.44.36.68.53a10.64,10.64,0,0,0,1.54.89c.27.13.54.24.82.35l.81.26.41.1.39.09.75.11.37,0,.33,0c.22,0,.44,0,.66,0l.57,0,.28,0,.27,0,.47-.06.44-.08.39-.09.37-.09.63-.2a11,11,0,0,0,1.7-.73l.58-.32.25-.15.22-.15.22-.13.19-.13L142,426c.43-.32.77-.6,1.08-.86.61-.53,1.08-1,1.52-1.43.86-.87,1.56-1.66,2.22-2.44,1.33-1.56,2.49-3.05,3.62-4.55.56-.74,1.11-1.49,1.65-2.24l.81-1.13.83-1.18a9.29,9.29,0,0,0-2.51-13.11,9.79,9.79,0,0,0-13.37,2.39l-.11.15-.67.95-.72,1c-.48.65-1,1.3-1.46,1.94-1,1.28-2,2.53-2.92,3.62-.47.54-.93,1.05-1.3,1.42a4.36,4.36,0,0,1-.4.37l.06,0,.08-.06.13-.09.09-.06.1-.06.3-.16a6.51,6.51,0,0,1,1.1-.47l.47-.15.28-.07.31-.07.37-.06.39-.06.22,0,.24,0h.49a5.66,5.66,0,0,1,.58,0l.28,0,.33,0c.22,0,.45.06.67.11l.35.07.37.1.73.23.74.31a8.85,8.85,0,0,1,1.4.82c.22.15.42.31.62.47l.29.25.25.24q.25.26.48.51c.14.17.26.31.38.47l.18.25.16.23.26.42c.17.31.28.52.39.77a8.4,8.4,0,0,1,.61,1.95c0,.1,0,.19,0,.29l0,.23v.37a3,3,0,0,1,0,.61c0,.07,0,.05,0,0s0-.13,0-.23,0-.05,0-.05h0a.19.19,0,0,0,0-.08l0,0v0l0,0a14.9,14.9,0,0,1,.62-1.5c.28-.61.6-1.25.95-1.93.69-1.33,1.48-2.73,2.3-4.13,1.65-2.81,3.44-5.66,5.28-8.5,3.68-5.69,7.56-11.35,11.51-17q3-4.21,6-8.42l3-4.18,3-4.14L177,368a9.43,9.43,0,0,0-2.26-13.35,9.94,9.94,0,0,0-13.67,2.2Z"/><path class="cls-7" d="M160,445.29c-.39,2.38-.37,4.2.36,5.27,1,1.53,9.49,3.13,20.15,4.14l2,.18c2.25.19,4.57.36,6.94.49l1.65.09c18,.89,37.4-.14,38.56-5.56,2.22-10.46-4.15-26.27-2.68-42.56.59-6.58,6.22-19.54,6.73-27.68.79-12.41,1-24-.78-27-1.25-2.06-6.68-3.87-12.54-5.27-1.81-.43-3.66-.83-5.44-1.18-6.07-1.21-11.33-1.9-11.33-1.9s-15.62.8-26.24,3.44a39.13,39.13,0,0,0-5.2,1.64l-.64.28-2.05.95c-10.11,4.77-8.73,5.67-7.95,11.54,1.14,8.62,2.07,8.1-.26,15.6-.19.61-.4,1.27-.64,2-.57,1.78-1.29,3.94-2.17,6.6a23.77,23.77,0,0,0-1.25,5.74c0,.31,0,.61,0,.9-.06,8.94,9.25,8.21,9.25,19.5,0,6.9-1.62,14-3.26,20.13-.08.3-.15.59-.23.88-.95,3.53-1.89,6.75-2.5,9.46C160.3,443.81,160.14,444.58,160,445.29Z"/><path class="cls-18" d="M210.91,367.52c.15,3.35,3.67,4.77,6.41,5.37-.15-.34-.3-.69-.44-1-2.33-.61-4.94-1.86-5.06-4.37s1.73-4,3.41-4.77c0-.32,0-.64,0-1C213.25,362.58,210.76,364.27,210.91,367.52Z"/><path class="cls-18" d="M206.23,357.4a9,9,0,0,0,5.4-1.77,4,4,0,0,0,1.75-2.92c.36-3.35-3.13-7.2-3.28-7.36a.47.47,0,0,0-.65,0,.44.44,0,0,0,0,.63s3.36,3.72,3.05,6.67a3.09,3.09,0,0,1-1.38,2.29,8.47,8.47,0,0,1-8.39.86.47.47,0,0,0-.62.2.44.44,0,0,0,.21.6A9.47,9.47,0,0,0,206.23,357.4Z"/><path class="cls-18" d="M180.41,360.83a25.14,25.14,0,0,0,3.17-.19.44.44,0,1,0-.12-.88c-.06,0-6.48.83-9-1.15a2.29,2.29,0,0,1-.92-1.7c-.31-4.26,5.48-7.48,5.54-7.51a.44.44,0,0,0,.17-.61.46.46,0,0,0-.62-.17c-.26.14-6.36,3.53-6,8.36a3.16,3.16,0,0,0,1.26,2.33C175.48,360.55,178.24,360.83,180.41,360.83Z"/><path class="cls-18" d="M224.4,439.89h0a.44.44,0,0,0,.41-.49c0-.19-2.21-19.58-2.41-30.57s5-30.72,5-30.92a.43.43,0,0,0-.33-.54.47.47,0,0,0-.56.32c-.05.2-5.24,20.08-5.05,31.15s2.39,30.46,2.42,30.66A.45.45,0,0,0,224.4,439.89Z"/><path class="cls-18" d="M179.41,433.45c9.06,0,17.15-3.4,22.92-6.76a66.62,66.62,0,0,0,14-10.87.45.45,0,0,0,0-.64.46.46,0,0,0-.64,0,65.25,65.25,0,0,1-13.77,10.71c-7.65,4.45-19.42,9-32.07,5.25a.46.46,0,0,0-.57.3.44.44,0,0,0,.31.55A34.74,34.74,0,0,0,179.41,433.45Z"/><path class="cls-18" d="M183.64,441.31a35.26,35.26,0,0,0,10.45-1.73,44.83,44.83,0,0,0,9.5-4.27.45.45,0,0,0,.14-.62.47.47,0,0,0-.64-.13c-.15.1-15.44,9.65-28.24,4.14a.48.48,0,0,0-.61.23.45.45,0,0,0,.24.59A23.05,23.05,0,0,0,183.64,441.31Z"/><path class="cls-18" d="M184.22,374.23a27.32,27.32,0,0,0,13-3.52,37.88,37.88,0,0,0,10.09-8,.43.43,0,0,0-.06-.63.46.46,0,0,0-.64.06,37.74,37.74,0,0,1-9.86,7.79c-8,4.34-15.84,4.56-23.34.65a.46.46,0,0,0-.62.18.45.45,0,0,0,.18.61A24.14,24.14,0,0,0,184.22,374.23Z"/><path class="cls-14" d="M233.75,379.66c.79-12.41,1-24-.78-27-1.25-2.06-6.68-3.87-12.54-5.27C207.66,364.6,220.82,388.18,233.75,379.66Z"/><path class="cls-14" d="M161.32,377.79c6.89-7.54,8.09-20.4,8.21-27.14-10.11,4.77-8.73,5.67-7.95,11.54C162.72,370.81,163.65,370.29,161.32,377.79Z"/><path class="cls-14" d="M177.42,347.78c1.17,6.13,2.19,17.63,12.07,17.63,9.61,0,22.24-15.24,25.5-19.17a83,83,0,0,1-11.86-3.43S188,345.14,177.42,347.78Z"/><path class="cls-18" d="M166.64,368.45a7,7,0,0,1,2.82,3.81,4.73,4.73,0,0,1-1.63,4.2c-1.34,1.39-2.56,2.5-3.53,3.39-3.23,3-4.71,4.32-2.51,8.21a2.18,2.18,0,0,1,.08,2.35c-.69,1.09-2.45,1.78-4.38,1.72h-.23c0,.31,0,.61,0,.9h.52c2.17,0,4.08-.83,4.91-2.16a3,3,0,0,0-.06-3.24c-1.85-3.29-.88-4.18,2.34-7.12,1-.9,2.2-2,3.57-3.44,1.56-1.62,2.19-3.29,1.86-5a8.06,8.06,0,0,0-3.41-4.55Z"/><path class="cls-18" d="M214.85,391.17a12.55,12.55,0,0,1-6.55-1.9,8.79,8.79,0,0,0-7-1.24l-.41.06h0a6.83,6.83,0,0,1-8-5.61,6.42,6.42,0,0,1,5.32-7.69,7.57,7.57,0,0,1,6.59,1.94c5,4.27,7.08,4,9.69,3.57a16.47,16.47,0,0,1,3.13-.25c2,.07,3.43,2,3.36,4.7-.08,3.21-2.19,6.42-6.07,6.42Zm-.16-10c-2.73.41-5.09.76-10.43-3.79a6.67,6.67,0,0,0-5.8-1.73,5.47,5.47,0,0,0-4.6,6.65,5.88,5.88,0,0,0,6.93,4.89h0l.38-.06a9.7,9.7,0,0,1,7.59,1.34,11.48,11.48,0,0,0,6.11,1.78H215c3.3,0,5.1-2.77,5.17-5.54.05-1.84-.7-3.73-2.48-3.78h-.36A17,17,0,0,0,214.69,381.19Z"/><path class="cls-18" d="M164.82,404c-2.43-2.33-3.49-4.94-3.08-7.53a.44.44,0,0,1,.3-.36s4.34-1.54,5.1-7.69c.49-3.94,3.83-6.43,6.92-7.15s6.15.27,7.8,2.71c3.54,5.21,4.79,6,14.83,8.88,4.42,1.28,7,4.56,6.77,8.54s-3.71,8.72-10.91,9.94a29.35,29.35,0,0,1-4.86.39C179.27,411.77,169.65,408.66,164.82,404Zm9.46-21.86c-2.79.65-5.8,2.87-6.23,6.39-.73,5.86-4.4,7.86-5.44,8.32-.27,2.25.69,4.44,2.85,6.51,5.52,5.28,18.1,8.6,26.94,7.1,6.7-1.14,9.92-5.4,10.14-9.12.22-3.54-2.12-6.46-6.11-7.62-9.87-2.88-11.54-3.66-15.33-9.25a5.86,5.86,0,0,0-5-2.54A8.27,8.27,0,0,0,174.28,382.18Z"/><path class="cls-18" d="M172.63,417.9a.45.45,0,0,1,.29-.44c.58-.23,14.25-5.51,18.65-4a.44.44,0,0,1,.3.39c0,.32.55,7.79-3.18,11.84a7.72,7.72,0,0,1-5.68,2.49h-.42C173.21,428.18,172.64,418,172.63,417.9Zm.94.27a13.3,13.3,0,0,0,1.34,4.54,8.12,8.12,0,0,0,8.07,4.57,6.88,6.88,0,0,0,5-2.2c3.06-3.32,3-9.43,3-10.87C187,413.24,175.61,417.4,173.57,418.17Z"/><path class="cls-18" d="M207.69,446.23c-2.81-.19-4.6-1.39-4.91-3.29-.38-2.3,1.58-4.8,4.77-6.08,3-1.2,3-3.43,3-5.8,0-1.7,0-3.46,1.28-4.7a5.93,5.93,0,0,1,6.71-.78,4,4,0,0,1,1.7,5c-1.4,4.63,1.77,6.27,1.9,6.34h0a.44.44,0,0,1,.25.31.48.48,0,0,1-.1.38c-.32.36-7.64,8.68-14.14,8.68Zm11.72-15.94c.52-1.75.07-3.15-1.29-3.94a4.93,4.93,0,0,0-5.59.65c-1,1-1,2.48-1,4.07,0,2.43,0,5.19-3.61,6.62-3.11,1.24-4.48,3.51-4.21,5.11.23,1.45,1.72,2.37,4.07,2.54,5.42.37,12-6.3,13.53-8C220.28,436.62,218.14,434.48,219.41,430.29Z"/><path class="cls-18" d="M160,445.29a9.37,9.37,0,0,0,1.36,2.82A4.14,4.14,0,0,0,164.6,450a3.73,3.73,0,0,0,.47,0c1.79-.28,3.34-2.14,4.37-5.23,1.29-3.89,1.12-7-.48-9.09a8.59,8.59,0,0,0-5.75-3c-.08.3-.15.59-.23.88a7.77,7.77,0,0,1,5.24,2.65c1.42,1.89,1.54,4.68.35,8.27-.92,2.76-2.21,4.4-3.65,4.63a3,3,0,0,1-2.8-1.5,9.61,9.61,0,0,1-1.64-4.59C160.3,443.81,160.14,444.58,160,445.29Z"/><path class="cls-20" d="M178.2,452.66l0,0a14.14,14.14,0,0,0,2.3,2l2,.18a14.81,14.81,0,0,1-3.62-2.77c-.13-.17-1.42-2-.7-3.69.61-1.42,2.5-2.36,5.62-2.79,8.3-1.16,10.27,3.8,10.57,4.75a12,12,0,0,1-4.93,5l1.65.09a14.62,14.62,0,0,0,4.17-4.79.45.45,0,0,0,.05-.32c0-.07-1.67-7-11.64-5.61-3.46.48-5.6,1.61-6.34,3.34C176.44,450.28,178.13,452.56,178.2,452.66Z"/><path class="cls-6" d="M154.11,460.17c-.38-10.11-2.13-20.09-3.57-30.09,6.9,2.92,13.69,5.58,19.7,9.13h0c3.71,2.19,7,4.11,9.49,5.46,3.73,2,8.5,2.24,13.16,1.61a64.92,64.92,0,0,0,17.82-5.6s29.28-13,34.77-12.53c4.27.33-18.7,23.76-37.7,33.35a35,35,0,0,1-9.41,4.12c-18.59,5.78-36.06.56-44.19-2.71C154.17,462,154.15,461.08,154.11,460.17Z"/><polygon class="cls-14" points="100.81 504.15 98.33 519.49 83.63 520.49 85.16 501.64 100.81 504.15"/><path class="cls-7" d="M49.35,542l52.57-.05a7.09,7.09,0,0,0,.69-2.85c.32-4.34-1.1-11.27-1.8-15.64-.08-.51-.15-1-.21-1.42a14.22,14.22,0,0,1-.16-1.79,2.66,2.66,0,0,0-3.23-3c-5.32,5.1-11.35-2.53-14.86,0,0,0-1.52,1.06-5.69,4.73s-11.26,6.1-17.3,8.57c-7.8,3.19-10,6.37-10.44,8.57A4,4,0,0,0,49.35,542Z"/><path class="cls-18" d="M49.35,542l52.57-.05a7.09,7.09,0,0,0,.69-2.85l-53.69.05A4,4,0,0,0,49.35,542Z"/><path class="cls-8" d="M81.56,519.42s-.94-2.24-3-1.53S76.66,522,76.66,522,77.92,525,81.56,519.42Z"/><path class="cls-8" d="M82.21,529.51a.86.86,0,0,0,.87-.85,10.69,10.69,0,0,0-3.41-8,.88.88,0,0,0-1.22.1.82.82,0,0,0,.1,1.19,9,9,0,0,1,2.8,6.68A.86.86,0,0,0,82.21,529.51Z"/><path class="cls-8" d="M71.28,522.87a.9.9,0,0,0,.58-.21c1.1-1,4.33-1.14,6.1-1a.85.85,0,1,0,.11-1.69c-.54,0-5.37-.28-7.36,1.45a.85.85,0,0,0,.57,1.48Z"/><path class="cls-8" d="M78.9,520l.44.43h0v.06l-.36,1.74.2,0a14.91,14.91,0,0,0,1.67.08h.34a34.19,34.19,0,0,0,3.85-.32,8.58,8.58,0,0,0,4.13-1.57,3.76,3.76,0,0,0,1.27-1.66,1,1,0,0,0,.05-.16,2.56,2.56,0,0,0-.68-2.58A3.7,3.7,0,0,0,87,515H87a7.62,7.62,0,0,0-3.13.81A19.16,19.16,0,0,0,80.29,518l-.27.21c-.44.36-.81.68-1.08.93l-.49.45Zm1.88.51h-.63c.37-.33.85-.74,1.39-1.16h0a18.76,18.76,0,0,1,2.2-1.48,9.23,9.23,0,0,1,2-.9,4.28,4.28,0,0,1,1.22-.21H87a1.88,1.88,0,0,1,1.38.56.78.78,0,0,1,.26.71.94.94,0,0,1,0,.16c-.28.79-1.59,1.72-3.89,2l-1.08.13A27.44,27.44,0,0,1,80.78,520.54Z"/><path class="cls-8" d="M77.49,521.45l.8-1.66c-1.73-.8-3.39-2.9-3.28-4.17,0-.31.16-.69,1-.92a1.08,1.08,0,0,1,1,.11c.9.69,1.19,3,1.16,4.3l1.88,0c0-.44,0-4.33-1.89-5.8a3,3,0,0,0-2.7-.42,2.83,2.83,0,0,0-2.32,2.53C73,517.72,75.28,520.43,77.49,521.45Z"/><path class="cls-18" d="M96.56,541.92h1.56a11.11,11.11,0,0,1-2.83-8.22,14.39,14.39,0,0,1,5.52-10.28c-.08-.51-.15-1-.21-1.42A15.69,15.69,0,0,0,94,533.64,12.29,12.29,0,0,0,96.56,541.92Z"/><path class="cls-8" d="M77.55,525a.86.86,0,0,0,.84-.65.83.83,0,0,0-.63-1l-3.28-.79a.86.86,0,0,0-1,.61.84.84,0,0,0,.63,1l3.29.79Z"/><path class="cls-8" d="M74.27,526.86a.86.86,0,0,0,.84-.64.84.84,0,0,0-.63-1l-3.29-.8a.86.86,0,0,0-1,.62.83.83,0,0,0,.63,1l3.28.8A.75.75,0,0,0,74.27,526.86Z"/><path class="cls-8" d="M71,528.66a.87.87,0,0,0,.84-.64.84.84,0,0,0-.63-1l-3.29-.79a.86.86,0,0,0-1,.62.85.85,0,0,0,.64,1l3.28.79Z"/><path class="cls-8" d="M67.41,530.32a.87.87,0,0,0,.84-.64.84.84,0,0,0-.63-1l-3.29-.79a.87.87,0,0,0-1,.62.85.85,0,0,0,.64,1l3.28.79Z"/><path class="cls-8" d="M63.53,531.74a.86.86,0,0,0,.84-.65.85.85,0,0,0-.63-1l-3.29-.8a.88.88,0,0,0-1.05.62.85.85,0,0,0,.64,1l3.28.79Z"/><path class="cls-6" d="M175.59,442.33c-17.77-9.18-49-27.5-62.12-30.1-22.93-4.54-30.39,95.4-30.39,95.4l18.39,1.76s17.21-43.08,18.58-59.69c0,0,23.93,22.47,72.41,23.41Z"/><path class="cls-17" d="M103.8,504.86a9.22,9.22,0,0,1-2.66,5.45l-19.07-1.84s-.43-4.25.54-6Z"/><path class="cls-17" d="M99.67,505.38a.54.54,0,0,0,.51-.37c0-.15,4.64-14.89,9-27.87,3.81-11.46,7.84-32.64,8.78-37.73a67.39,67.39,0,0,0,17.88,14.29,114.75,114.75,0,0,0,21.11,9.21,145,145,0,0,0,24.5,5.82.52.52,0,1,0,.13-1,144,144,0,0,1-24.31-5.78c-12.2-4-28.9-11.45-39.21-24a.56.56,0,0,0-.56-.18.53.53,0,0,0-.39.41c0,.26-4.64,25.77-9,38.72s-8.93,27.74-9,27.88a.53.53,0,0,0,.35.66Z"/><path class="cls-14" d="M184.29,350.14c10.14,13.33,22.34-2.61,22.17-6.16-4.2-7.93-5.38-18.47-5.38-18.47l-19.5,10.65.46,1.75a78.16,78.16,0,0,1,1.86,8.48A29.53,29.53,0,0,1,184.29,350.14Z"/><path class="cls-4" d="M183.9,346.39c10.49-4.15,15.68-16.27,15.68-16.27L182,337.91A78.16,78.16,0,0,1,183.9,346.39Z"/><path class="cls-15" d="M174.46,321.87s-2.44-4.73-6.41-2.94-1.88,15.32,5.95,13.65Z"/><path class="cls-8" d="M173.94,342.44a6.83,6.83,0,1,1,6.76-7.05A6.93,6.93,0,0,1,173.94,342.44Zm-.43-12.63a5.81,5.81,0,1,0,6.15,5.61A5.86,5.86,0,0,0,173.51,329.81Z"/><path class="cls-14" d="M201.63,327.09c-1.31,5.72-14.71,14.14-21,12.33-3.83-1.09-7.51-3.89-10.38-10.84,0,0,0-.08,0-.11-.17-.41-.33-.82-.48-1.22-.28-.73-.53-1.44-.75-2.12l-.15-.48c-.13-.43-.24-.84-.35-1.24s-.23-1-.31-1.41c-1.32-7.2-3-15.27,3.11-20.76s16.42-8.25,23.46-2.64c0,0,5.35,5,6.74,15.48S202.58,323,201.63,327.09Z"/><path class="cls-4" d="M188.84,298.13S194,309,197.65,310.75s5.75-4.1,5.75-4.1S194.1,290.27,188.84,298.13Z"/><path class="cls-4" d="M174.48,300.46s7.86,8.44,15.87,5.14,1.48-9.3,1.48-9.3S175.5,292.17,174.48,300.46Z"/><path class="cls-4" d="M176.59,299.39S174.15,312,165.72,311s1.38-14.44,6.88-14.68S176.59,299.39,176.59,299.39Z"/><path class="cls-15" d="M184.17,331.84a2,2,0,0,1-.32,0,.41.41,0,0,1-.43-.4.43.43,0,0,1,.41-.42,2.69,2.69,0,0,0,2.24-1.43.42.42,0,0,1,.56-.19.41.41,0,0,1,.2.55A3.47,3.47,0,0,1,184.17,331.84Z"/><path class="cls-2" d="M180.63,329.84a6.92,6.92,0,0,1-.93.08.42.42,0,0,1-.41-.42.41.41,0,0,1,.43-.4c.21,0,5.08,0,5.42-5a.43.43,0,0,1,.45-.39.41.41,0,0,1,.39.44A5.85,5.85,0,0,1,180.63,329.84Z"/><path class="cls-12" d="M180,325.28a4.08,4.08,0,0,0,.8-.14.5.5,0,0,0,.35-.61.52.52,0,0,0-.63-.34,3,3,0,0,1-2.36-.33c1.18-2.33,1.11-7.61,1.11-7.85a.49.49,0,0,0-.51-.48.5.5,0,0,0-.5.5c0,1.64-.14,6.22-1.18,7.68a.48.48,0,0,0,.07.65A4.2,4.2,0,0,0,180,325.28Z"/><path class="cls-15" d="M170.18,328.47c-.17-.41-.33-.82-.48-1.22-.28-.73-.53-1.44-.75-2.12l-.15-.48.37-.07c2.77-.51,5.18,0,5.39,1.05S172.82,327.93,170.18,328.47Z"/><path class="cls-15" d="M196.05,321.24c.21,1.09-1.86,2.38-4.63,2.89s-5.18,0-5.39-1.05,1.86-2.38,4.63-2.89S195.84,320.15,196.05,321.24Z"/><path class="cls-8" d="M179.47,318.43a6.82,6.82,0,1,1,7.27,6.19A6.72,6.72,0,0,1,179.47,318.43Zm1-.07a5.81,5.81,0,1,0,5.4-6.05A5.79,5.79,0,0,0,180.47,318.36Z"/><path class="cls-8" d="M164,321.43a6.82,6.82,0,1,1,7.27,6.19A6.73,6.73,0,0,1,164,321.43Zm1-.07a5.81,5.81,0,1,0,5.4-6.05A5.78,5.78,0,0,0,165.05,321.36Z"/><path class="cls-8" d="M177.52,320.37a1.7,1.7,0,0,1,2.28-.53l.48-.86a2.69,2.69,0,0,0-3.61.86Z"/><path class="cls-8" d="M192.28,315.51a.66.66,0,0,0,.51-.28c.06-.07,1.05-1.1,5.77-2.18a.66.66,0,1,0-.3-1.28c-5.44,1.24-6.46,2.5-6.61,2.75a.65.65,0,0,0,.23.9A.71.71,0,0,0,192.28,315.51Z"/><path class="cls-8" d="M164.58,321.89a.56.56,0,0,0,.29-.12,6.54,6.54,0,0,1,2.61-.91.49.49,0,1,0-.14-1,7.48,7.48,0,0,0-3.11,1.13.47.47,0,0,0-.07.69A.51.51,0,0,0,164.58,321.89Z"/><path class="cls-12" d="M180.92,309.36a5.81,5.81,0,0,1,4.87-2.25c1.73.13,1.78,1.79-.16,2.1a6.41,6.41,0,0,0-3.26,1.27C181.18,311.33,180.43,309.9,180.92,309.36Z"/><path class="cls-12" d="M173.3,311.07a5.87,5.87,0,0,0-5.38-.23c-1.55.78-.93,2.33,1,1.88a6.42,6.42,0,0,1,3.51-.07C173.85,313,174,311.38,173.3,311.07Z"/><path class="cls-14" d="M198.55,313.19s1.75-4.59,6.42-3.44,5.26,16.21-3.58,16Z"/><path class="cls-8" d="M207.24,322c-.2.32-.3.63-.5.94a5.83,5.83,0,1,1-6.59,6,5.77,5.77,0,0,1,2.88-5.16c1.21-.56,1.32-1.1,1.27-1.63a6.87,6.87,0,0,0-5.19,6.82,7,7,0,1,0,8.13-6.94Z"/><path class="cls-12" d="M201.54,319.78a.41.41,0,0,0,.38.44H202a.41.41,0,0,0,.36-.37,8.13,8.13,0,0,1,.95-2.92c1,.6,1.75,1.17,1.76,1.17a.38.38,0,0,0,.3.08.4.4,0,0,0,.28-.16.39.39,0,0,0-.08-.56s-.83-.6-1.82-1.21a5,5,0,0,1,2.33-1.76.4.4,0,0,0,.24-.52.41.41,0,0,0-.53-.24C202,315.12,201.56,319.6,201.54,319.78Z"/><path class="cls-12" d="M185.32,317.67c.19,1-.11,1.85-.68,2s-1.19-.59-1.38-1.56.1-1.85.67-2S185.12,316.7,185.32,317.67Z"/><path class="cls-12" d="M174.22,320.08c.2,1-.1,1.85-.67,2s-1.19-.59-1.39-1.56.11-1.85.67-2S174,319.11,174.22,320.08Z"/><path class="cls-16" d="M144.92,444.16l81.34,8.55a.34.34,0,0,0,.37-.28h0a4.52,4.52,0,0,0-4.08-4.95l-77.11-8.11a.33.33,0,0,0-.36.29l-.46,4.14A.33.33,0,0,0,144.92,444.16Z"/><path class="cls-12" d="M122.59,397.4l5.53,43a2.54,2.54,0,0,0,2.26,2.17l62.55,6.57a2.51,2.51,0,0,0,2.8-2.78l-5.53-43a2.51,2.51,0,0,0-2.25-2.17l-62.55-6.58A2.53,2.53,0,0,0,122.59,397.4Z"/><path class="cls-16" d="M163.24,422.67c-.5,3.76-7.55,7.79-7.55,7.79s-7.07-5.51-7.57-9.38c-.55-4.18,4.36-4.93,7.55-1.48C158.86,416.82,163.77,418.6,163.24,422.67Z"/><path class="cls-16" d="M185.47,400.93l5.64,48,1.82.19a2.51,2.51,0,0,0,2.8-2.78l-5.53-43a2.51,2.51,0,0,0-2.25-2.17Z"/><path class="cls-14" d="M159.43,479.44s6.68-1.05,8.75-3.19l4.35,13.58-16,3.2S156.75,481.58,159.43,479.44Z"/><path class="cls-7" d="M120.45,512.6l20.66-44.78a7.27,7.27,0,0,1,2.81.53c4,1.43,9.64,5.36,13.27,7.67l1.18.74a14,14,0,0,0,1.54.83c3.18,1.4,1.54,2.41,1.54,2.41-6.64,2.53-2.36,12.17-6,14.18,0,0-1.54.87-6.45,3s-9.87,7.21-14.45,11.38c-5.91,5.4-9.62,6-11.74,5.54A4,4,0,0,1,120.45,512.6Z"/><path class="cls-8" d="M156.6,491.66s1.83,1.22.8,2.87-4,.84-4,.84S150.88,493.72,156.6,491.66Z"/><path class="cls-8" d="M147.67,489.2a.77.77,0,0,1,.92-.58A9.86,9.86,0,0,1,155.1,493a.75.75,0,0,1-.32,1,.78.78,0,0,1-1.05-.31,8.35,8.35,0,0,0-5.47-3.65A.75.75,0,0,1,147.67,489.2Z"/><path class="cls-8" d="M151.57,499.8a.73.73,0,0,1,.3-.45c1.06-.76,1.83-3.49,2.06-5a.78.78,0,0,1,.89-.64.76.76,0,0,1,.65.86c-.07.47-.76,4.65-2.69,6a.78.78,0,0,1-1.08-.16A.72.72,0,0,1,151.57,499.8Z"/><path class="cls-8" d="M155.86,494.29l.5-.33c.28-.19.64-.45,1-.76l.24-.19a17.1,17.1,0,0,0,2.67-2.6,6.74,6.74,0,0,0,1.32-2.54s0,0,0-.05a3.18,3.18,0,0,0-.5-2.54,2.41,2.41,0,0,0-2.19-1.07h-.16a3.52,3.52,0,0,0-1.73.77,7.38,7.38,0,0,0-2.18,3.25,26,26,0,0,0-1,3.23c0,.1-.05.2-.07.29a11.11,11.11,0,0,0-.23,1.44c0,.11,0,.17,0,.18l1.63,0h.05v0l.31.46Zm.28-4.59c.09-.28.2-.58.32-.9.71-1.91,1.79-2.86,2.55-2.95h.15a.76.76,0,0,1,.58.36,1.58,1.58,0,0,1,.25,1.29v0a3.45,3.45,0,0,1-.42,1,8.11,8.11,0,0,1-1.18,1.54,19.72,19.72,0,0,1-1.74,1.6h0c-.47.39-.93.72-1.29,1,0-.15.06-.33.11-.54A22.05,22.05,0,0,1,156.14,489.7Z"/><path class="cls-8" d="M154,494.76l1.64-.37c.39,1.63,2,3.44,3.12,3.59.28,0,.65,0,1-.66a.89.89,0,0,0,.09-.9c-.44-.91-2.46-1.59-3.63-1.8l.31-1.62c.39.07,3.89.76,4.84,2.71a2.48,2.48,0,0,1-.13,2.38,2.6,2.6,0,0,1-2.71,1.52C156.5,499.34,154.51,496.84,154,494.76Z"/><path class="cls-18" d="M120.45,512.6l20.66-44.78a7.27,7.27,0,0,1,2.81.53l-21.09,45.74A4,4,0,0,1,120.45,512.6Z"/><path class="cls-18" d="M139,472.39l.61-1.33a10.94,10.94,0,0,0,6.23,5.64,14.53,14.53,0,0,0,11.35-.68l1.18.74a15.75,15.75,0,0,1-13,1A12.13,12.13,0,0,1,139,472.39Z"/><path class="cls-8" d="M146.66,495.22a.85.85,0,0,1,.91-.47.82.82,0,0,1,.66.95l-.58,3.11a.82.82,0,0,1-1,.65.81.81,0,0,1-.67-.94l.58-3.11A.6.6,0,0,1,146.66,495.22Z"/><path class="cls-8" d="M150.33,493.49a.84.84,0,0,1,.9-.47.82.82,0,0,1,.67,1l-.58,3.1a.83.83,0,0,1-1,.66.81.81,0,0,1-.67-.94l.58-3.11A.6.6,0,0,1,150.33,493.49Z"/><path class="cls-8" d="M143.71,497.28a.83.83,0,0,1,.9-.46.81.81,0,0,1,.67.94l-.58,3.11a.83.83,0,0,1-1,.65.81.81,0,0,1-.66-.94l.58-3.11A.6.6,0,0,1,143.71,497.28Z"/><path class="cls-8" d="M140.82,499.37a.83.83,0,0,1,.9-.46.81.81,0,0,1,.67.94l-.58,3.11a.83.83,0,0,1-1,.65.8.8,0,0,1-.66-.94l.58-3.11A.7.7,0,0,1,140.82,499.37Z"/><path class="cls-8" d="M137.93,501.77a.83.83,0,0,1,.9-.46.81.81,0,0,1,.67.94l-.58,3.11a.82.82,0,0,1-1,.65.81.81,0,0,1-.67-.94l.58-3.11A.7.7,0,0,1,137.93,501.77Z"/><path class="cls-8" d="M135.14,504.53a.83.83,0,0,1,.91-.47.81.81,0,0,1,.66.94l-.58,3.11a.83.83,0,0,1-1.63-.29l.58-3.11A.55.55,0,0,1,135.14,504.53Z"/><path class="cls-6" d="M245.48,428.15s18.54-9.77,29.27-2.22c19.63,13.81-13.68,40.37-51.78,53.34s-50.48,11.21-50.48,11.21-8.28-2.23-5.34-15.33c0,0,22-8.16,33.39-16.7S219.76,439.43,245.48,428.15Z"/><path class="cls-17" d="M177.06,471.87a.58.58,0,0,0,.26-.06c.19-.11,19.11-10.51,26.91-16.76,6.28-5,20.05-14.47,20.18-14.57a.51.51,0,0,0,.14-.73.55.55,0,0,0-.75-.12c-.14.09-13.94,9.55-20.25,14.61-7.73,6.2-26.56,16.55-26.75,16.65a.52.52,0,0,0,.26,1Z"/><path class="cls-17" d="M168.63,479c8-1.88,24.28-9.17,43.57-19.52,14.42-7.73,31.06-17.62,33.5-21.05,1.32-1.85,1.65-3.37,1-4.5-1-1.7-3.85-1.88-5.16-1.87a.57.57,0,0,0-.57.61h0a.57.57,0,0,0,.58.53c1.28,0,3.51.2,4.14,1.29.53.9-.22,2.29-.93,3.29-2,2.77-15.9,11.48-33.11,20.71-14.83,7.95-34,17.23-43.28,19.41Z"/><path class="cls-17" d="M170.14,473.41c.9,6.89,2.73,13.15,6.71,17.95,0,0-3.41,2.4-6.53.68-2.38-1.32-7-12.08-5.22-17.82C167.09,473.16,168.81,472.79,170.14,473.41Z"/><path class="cls-14" d="M255.66,414.73c-.11-1.61-.31-3.12-.52-4.58-.44-2.92-1-5.65-1.65-8.32s-1.35-5.26-2.1-7.81-1.56-5.06-2.39-7.55q-2.52-7.46-5.44-14.64c-1-2.4-2-4.8-3-7.17-.53-1.18-1.05-2.37-1.59-3.55l-.82-1.77-.42-.9-.44-.92a11.71,11.71,0,0,0-14.45-5.78A11.21,11.21,0,0,0,216,366.23l.06.14,2.58,6.81c.85,2.3,1.74,4.6,2.58,6.9,1.7,4.6,3.37,9.2,4.92,13.77s3,9.14,4.23,13.57c.3,1.11.57,2.2.83,3.28s.5,2.14.69,3.16c.1.5.19,1,.26,1.49-.75.21-1.53.41-2.33.61-2.25.57-4.62,1.08-7,1.57s-4.85,1-7.3,1.42c-4.92.9-9.91,1.75-14.91,2.6l-7.52,1.27-.55.09c.7,5.71,1.68,11.39,2.16,17.12,2.59,0,5.18-.07,7.77-.13,5.24-.15,10.49-.42,15.78-.83,2.64-.2,5.29-.46,8-.76s5.38-.66,8.17-1.13c1.4-.24,2.81-.51,4.28-.83a48.41,48.41,0,0,0,4.71-1.25c.86-.28,1.76-.6,2.83-1.06.52-.23,1.1-.5,1.75-.86a16.18,16.18,0,0,0,2.29-1.5c.24-.18.45-.35.72-.59l.37-.34.42-.41.2-.22.1-.11.12-.12c.15-.18.3-.35.44-.53s.31-.4.46-.62l.23-.33a2.82,2.82,0,0,0,.23-.36c.17-.26.32-.53.47-.81l.1-.21.12-.24c.07-.16.15-.32.22-.49l.19-.49c.07-.17.13-.37.19-.56s.12-.37.17-.57l.07-.28,0-.18.19-.92c0-.15.07-.32.09-.46l.06-.42c0-.28.09-.58.12-.85l.08-.78,0-.4,0-.37A39.91,39.91,0,0,0,255.66,414.73Z"/><path class="cls-15" d="M244.69,419.93a.54.54,0,0,1-.38-.15c-4.29-3.92-11.37-4-11.44-4a.54.54,0,1,1,0-1.08c.31,0,7.59,0,12.2,4.27a.53.53,0,0,1,0,.76A.55.55,0,0,1,244.69,419.93Z"/><path class="cls-15" d="M235,416a.58.58,0,0,1-.49-.27.54.54,0,0,1,.21-.74c2.82-1.56,8.14-.81,8.37-.77a.55.55,0,0,1,.47.61.56.56,0,0,1-.63.46c-.06,0-5.18-.74-7.66.64A.54.54,0,0,1,235,416Z"/></svg>